<!DOCTYPE svg PUBLIC "-//W3C//DTD SVG 1.1//EN" "http://www.w3.org/Graphics/SVG/1.1/DTD/svg11.dtd">
<!-- Uploaded to: SVG Repo, www.svgrepo.com, Transformed by: SVG Repo Mixer Tools -->
<svg fill="#000000" width="800px" height="800px" viewBox="0 0 24 24" id="chat-alert-left-4" data-name="Flat Line" xmlns="http://www.w3.org/2000/svg" class="icon flat-line">
<g id="SVGRepo_bgCarrier" stroke-width="0"/>
<g id="SVGRepo_tracerCarrier" stroke-linecap="round" stroke-linejoin="round"/>
<g id="SVGRepo_iconCarrier">
<path id="secondary" d="M20,7.88A9,9,0,0,0,4,16.12l-.69,3.4a.9.9,0,0,0,0,.4,1,1,0,0,0,1.18.78L7.88,20h0a9.12,9.12,0,0,0,2.64.88A9,9,0,0,0,20,7.88Z" style="fill: #0eda88; stroke-width: 2;"/>
<path id="primary" d="M12,11V8m8-.12A9,9,0,0,0,4,16.12l-.69,3.4a.9.9,0,0,0,0,.4,1,1,0,0,0,1.18.78L7.88,20h0a9.12,9.12,0,0,0,2.64.88A9,9,0,0,0,20,7.88Z" style="fill: none; stroke: #000000; stroke-linecap: round; stroke-linejoin: round; stroke-width: 2;"/>
<line id="primary-upstroke" x1="11.95" y1="15.5" x2="12.05" y2="15.5" style="fill: none; stroke: #000000; stroke-linecap: round; stroke-linejoin: round; stroke-width: 2.5;"/>
</g>
</svg>